<svg xmlns="http://www.w3.org/2000/svg" viewBox="0 0 24 24" width="50px"><path d="M8.25 12.375H.75l.75.75v-2.25a2.25 2.25 0 0 1 2.25-2.25H18a.75.75 0 0 0 0-1.5H3.75A3.75 3.75 0 0 0 0 10.875v2.25c0 .414.336.75.75.75h7.5a.75.75 0 0 0 0-1.5m-8.25.75v3a.75.75 0 0 0 1.5 0v-3a.75.75 0 0 0-1.5 0m18.75-5.25v-5.25A2.25 2.25 0 0 0 16.5.375h-12a2.25 2.25 0 0 0-2.25 2.25V7.97a.75.75 0 0 0 1.5 0V2.625a.75.75 0 0 1 .75-.75h12a.75.75 0 0 1 .75.75v5.25a.75.75 0 0 0 1.5 0M8.5 5.625h4a.25.25 0 0 1 .25.25v2l.75-.75h-6l.75.75v-2a.25.25 0 0 1 .25-.25m0-1.5a1.75 1.75 0 0 0-1.75 1.75v2c0 .414.336.75.75.75h6a.75.75 0 0 0 .75-.75v-2a1.75 1.75 0 0 0-1.75-1.75zm14 12.75a5.25 5.25 0 1 1-10.5 0 5.25 5.25 0 0 1 10.5 0m1.5 0a6.75 6.75 0 1 0-13.5 0 6.75 6.75 0 0 0 13.5 0m-6 3v-6a.75.75 0 0 0-1.5 0v6a.75.75 0 0 0 1.5 0m-1.28-6.53-2.25 2.25a.75.75 0 1 0 1.06 1.06l2.25-2.25a.75.75 0 1 0-1.06-1.06m0 1.06 2.25 2.25a.75.75 0 1 0 1.06-1.06l-2.25-2.25a.75.75 0 1 0-1.06 1.06"></path></svg>