<svg xmlns="http://www.w3.org/2000/svg" viewBox="0 0 121 32"><g fill="none"><path fill="#fff" d="m115.546514 25.2308571c0 .6226286-.299657 1.1181715-.905828 1.4864-.602743.3650286-1.398857.5492572-2.381257.5492572-1.1824 0-2.194743-.2813714-3.037486-.8470857-.842514-.5659429-1.432-1.2857143-1.771886-2.1629715-.1664-.4219428-.462857-.5357714-.885714-.3380571l-3.204114 1.4395429c-.4496.2009142-.576.5090285-.379658.9341714.646172 1.5837714 1.765258 2.8893714 3.353829 3.9206857 1.5888 1.0310857 3.603657 1.5467429 6.051657 1.5467429 2.361143 0 4.356114-.6059429 5.988114-1.8212572 1.628572-1.2153143 2.444572-2.8694857 2.444572-4.9586286 0-3.4485257-2.417829-5.58464-7.253714-6.4015771-1.771886-.31136-3.040915-.6595657-3.816915-1.0378971-.772571-.3816915-1.158857-.8705143-1.158857-1.4631315 0-.5089143.303086-.9140343.905829-1.2086628.606171-.2979886 1.415543-.4453029 2.424685-.4453029 1.631772 0 3.050743.6361372 4.259658 1.9084114.336228.3381715.676114.3816915 1.012342.1272458l2.278172-2.11936c.392914-.3113829.436343-.6528915.126628-1.0178286-1.771885-2.1762743-4.373028-3.2644114-7.803428-3.2644114-2.444572 0-4.399543.5591314-5.858286 1.6740571-1.462171 1.1149257-2.194743 2.6215771-2.194743 4.5132571 0 1.5836572.582629 2.9061486 1.751772 3.96416 1.165714 1.0613486 2.747657 1.7744915 4.742628 2.1427886 1.968229.36496 3.343772.7601372 4.133029 1.18528.786057.4251429 1.178971.9876572 1.178971 1.6941714z"></path><path fill="#fff" d="m82.0909714 23.7168c0 2.5412571.6893715 4.5433143 2.0649143 5.9965714 1.3787429 1.4562286 3.2473143 2.1828572 5.6086857 2.1828572.8992 0 1.7218286-.1204572 2.4678857-.3581715.7458286-.2411428 1.3220572-.5024 1.7284572-.7869714.4061714-.2811428.8925714-.6761143 1.4553143-1.1851428l.5062857 1.2288c.1666286.3949714.4930286.5926857.9691428.5926857h3.4571429c.4496 0 .676114-.2244572.676114-.6763429v-19.2885714c0-.4519772-.226514-.6796572-.676114-.6796572h-4.2596571c-.4496 0-.6729143.22768-.6729143.6796572v13.1413714c-1.0690286 1.5536-2.4745143 2.3302857-4.2162286 2.3302857-1.0957714 0-1.9483429-.3515428-2.5513143-1.0580571-.6061714-.7065143-.9058286-1.6404572-.9058286-2.7990857v-11.6145143c0-.4519772-.2397714-.6796572-.7193142-.6796572h-4.2164572c-.4763428 0-.7161143.22768-.7161143.6796572z"></path><path fill="#febb02" d="m72.7899429 4.10043429c0 1.10098285.3952 2.04852571 1.1890285 2.84262857.7940572.79026285 1.7414857 1.18923428 2.8425143 1.18923428 1.1008 0 2.0482286-.39897143 2.8422857-1.18923428.7901715-.79410286 1.1890286-1.74164572 1.1890286-2.84262857 0-1.10100572-.3988571-2.048544-1.1890286-2.84264-.7940571-.794096-1.7414857-1.1892256-2.8422857-1.1892256-1.1010286 0-2.0484571.3951296-2.8425143 1.1892256-.7938285.794096-1.1890285 1.74163428-1.1890285 2.84264z"></path><g fill="#fff"><path d="m74.0096 30.5380571c0 .4518858.2365714.6763429.7161143.6763429h4.2162286c.4797714 0 .7161142-.2244571.7161142-.6763429v-19.2885028c0-.452-.2363428-.67968-.7161142-.67968h-4.2162286c-.4795429 0-.7161143.22768-.7161143.67968z"></path><path d="m71.7677714 17.4330286c0-2.3470172-.6395428-4.1616915-1.9184-5.4473829-1.2788571-1.2856686-3.1008-1.9285028-5.4619428-1.9285028-2.1348572 0-4.1033143.7901485-5.9017143 2.3738057l-.5494857-1.1885715c-.1398857-.4218742-.4496-.6361371-.9259429-.6361371h-3.4603428c-.4763429 0-.7161143.2276571-.7161143.6796571v19.2885029c0 .4518857.2397714.6763429.7161143.6763429h4.2164571c.4795429 0 .7193143-.2244572.7193143-.6763429v-13.1848914c.4196571-.5658286 1.0258286-1.0881372 1.8118857-1.5669257.7858286-.4821258 1.5753143-.7231772 2.3611429-.7231772 2.3346285 0 3.5003428 1.2722743 3.5003428 3.8168457v11.6581486c0 .4518857.2265143.6763429.6761143.6763429h4.2564571c.4496 0 .6761143-.2244572.6761143-.6763429z"></path><path d="m50.9942857 21.7554514c0 .452-.2233143.6796572-.6729143.6796572h-14.5074285c.3097142 1.2990628.9225142 2.3436343 1.8349714 3.1372343.9126857.7901714 2.0749714 1.1851428 3.4804571 1.1851428 1.9115429 0 3.3702857-.7901714 4.3828572-2.3737143.1698285-.2544.4363428-.2946285.8027428-.1273143l3.6267429 1.5268572c.4196571.1405714.5195428.3949714.2930286.7632-2.0514286 3.4754286-5.0854858 5.2130286-9.1053715 5.2130286-3.0374857 0-5.6153143-1.0178286-7.7401143-3.0500572-2.1216-2.0356571-3.184-4.6372571-3.184-7.80112 0-3.1639543 1.0557715-5.76544 3.1641143-7.8010971 2.1081143-2.0322972 4.5958857-3.0501257 7.4635429-3.0501257 3.1773714 0 5.6651428.9810057 7.4635428 2.9463314 1.7986286 1.9620114 2.6978286 4.4295543 2.6978286 7.3959771zm-6.9974857-5.9127771c-.9024-.6629257-1.9549714-.9943772-3.1638857-.9943772-1.2356572 0-2.2713143.31472-3.1008.9508572-.8292572.6361371-1.4253714 1.4631314-1.7917714 2.48096h9.6985142c-.1965714-.9609143-.7428571-1.7745143-1.6420571-2.43744z"></path><path d="m28.3577143 26.8957714c0 .4032-.1746286.7794286-.4905143 1.0416-2.9492571 2.3581715-6.792 3.7826286-10.9774171 3.7826286-9.30468576 0-16.85591021-7.0548571-16.85591021-15.7423314 0-8.69426289 7.55122445-15.9776686 16.85591021-15.9776686 4.1786971 0 8.0080457 1.42440686 10.9506742 3.78274286.1410286.11421714.2283429.27547428.2418286.45017143.0201143.18139428-.0336.35609142-.1478857.49718857-.7524571.90704-2.3177143 2.79506285-3.0902857 3.72226285-.1142857.14109715-.2822857.22845715-.4635429.24187429-.1814857.01344-.3561143-.04701714-.4905143-.16123429-1.8541485-1.57222857-4.3062857-2.52630857-7.0002742-2.52630857-5.7574858 0-10.42660576 4.59583996-10.42660576 9.97097146 0 5.3751085 4.66911996 9.7423314 10.42660576 9.7423314 2.2371428 0 4.3063542-.6582857 6.0059885-1.7803429v-4.3539428s-3.4396571 0-4.9310857 0c-.1746743 0-.3493486-.0672-.4769828-.1948572-.1209372-.1276571-.1948343-.2956342-.1948343-.4770285 0-1.06832 0-3.1511772 0-4.2194743 0-.1814172.0738971-.3493714.1948343-.4770514.1276342-.1209372.3023085-.1948343.4769828-.1948343h9.7212572c.3693714 0 .6717714.3023543.6717714.6718857z"></path></g></g></svg>