<svg xmlns="http://www.w3.org/2000/svg" viewBox="0 0 32 18"><path fill="#FEBB02" fill-rule="evenodd" d="M0 2.252A2.25 2.25 0 0 1 2.252 0h13.496q.104 0 .204.01.102-.01.205-.01h13.496a2.25 2.25 0 0 1 2.252 2.252v13.496A2.25 2.25 0 0 1 29.653 18H16.157q-.102 0-.204-.01-.101.01-.205.01H2.252A2.25 2.25 0 0 1 0 15.748zm7.335 11.293h4.801c1.413 0 1.413-1.129 1.413-1.129 1.13-.564.564-1.693.564-1.693.848-.847 0-1.694 0-1.694.565-.847 0-1.693-.847-1.693H9.594l.565-1.976c.565-1.693-1.13-2.258-1.694-.282l-1.13 3.387zM3.915 8.46v5.085h2.79V8.46zM21.99 6c0-.433 0-.65.064-.823.105-.284.329-.508.613-.613.173-.064.39-.064.823-.064s.65 0 .823.064c.284.105.509.329.613.613.064.173.064.39.064.823v1.5h1.5c.433 0 .65 0 .823.064.284.105.509.329.613.613.064.173.064.39.064.823s0 .65-.064.823a1.03 1.03 0 0 1-.613.613c-.173.064-.39.064-.823.064h-1.5V12c0 .433 0 .65-.064.823a1.03 1.03 0 0 1-.613.613c-.173.064-.39.064-.823.064s-.65 0-.823-.064a1.03 1.03 0 0 1-.613-.613c-.064-.174-.064-.39-.064-.823v-1.5h-1.5c-.433 0-.65 0-.823-.064a1.03 1.03 0 0 1-.613-.613c-.064-.173-.064-.39-.064-.823s0-.65.064-.823c.105-.284.329-.508.613-.613.173-.064.39-.064.823-.064h1.5z" clip-rule="evenodd"></path></svg>