<svg xmlns="http://www.w3.org/2000/svg" viewBox="0 0 24 24" width="50px"><path d="M22.5 12c0 5.799-4.701 10.5-10.5 10.5S1.5 17.799 1.5 12 6.201 1.5 12 1.5 22.5 6.201 22.5 12m1.5 0c0-6.627-5.373-12-12-12S0 5.373 0 12s5.373 12 12 12 12-5.373 12-12M8.78 16.28l7.5-7.5a.75.75 0 0 0-1.06-1.06l-7.5 7.5a.75.75 0 1 0 1.06 1.06M9.75 9a.75.75 0 1 1-1.5 0 .75.75 0 0 1 1.5 0m1.5 0a2.25 2.25 0 1 0-4.5 0 2.25 2.25 0 0 0 4.5 0m4.5 6a.75.75 0 1 1-1.5 0 .75.75 0 0 1 1.5 0m1.5 0a2.25 2.25 0 1 0-4.5 0 2.25 2.25 0 0 0 4.5 0"></path></svg>