<svg xmlns="http://www.w3.org/2000/svg" viewBox="0 0 24 24" width="50px"><path d="M14.44 15a.62.62 0 0 0 0-.85.58.58 0 0 0-.83 0c-.367.33-.847.506-1.34.49a1.9 1.9 0 0 1-1.34-.49.58.58 0 0 0-.83 0 .61.61 0 0 0 0 .85c.58.57 1.367.88 2.18.86a3 3 0 0 0 2.16-.86m7.17-6.49a2 2 0 0 0-.22 0l-.14-.32C19.245 3.091 13.487.583 8.388 2.588A9.92 9.92 0 0 0 2.67 8.5h-.28a2.16 2.16 0 0 0-2.16 2.17v2.82a2.16 2.16 0 0 0 4.32 0v-2.82A2.2 2.2 0 0 0 4 9.27a8.41 8.41 0 0 1 15.85-.45l.17.39a2 2 0 0 0-.59 1.46v2.82c.002.466.157.92.44 1.29a8.4 8.4 0 0 1-5.29 5.06 2.63 2.63 0 0 0-4.715 2.332 2.63 2.63 0 0 0 4.965-.822 10 10 0 0 0 6.32-5.75q.218.048.44.05a2.16 2.16 0 0 0 2.16-2.16v-2.82a2.16 2.16 0 0 0-2.14-2.16m-18.56 5a.66.66 0 0 1-1.32 0v-2.84a.66.66 0 0 1 1.32 0zm9.2 8.65a1.13 1.13 0 0 1 0-2.26 1.13 1.13 0 0 1 1.13 1.1 1.14 1.14 0 0 1-1.13 1.14zm10-8.65a.66.66 0 0 1-1.32 0v-2.84a.67.67 0 0 1 .66-.66.66.66 0 0 1 .66.66zM7.33 8.88c-.21.21-.328.494-.33.79.002.224.068.443.19.63.124.186.302.329.51.41.205.088.431.112.65.07.215-.049.412-.156.57-.31.16-.157.268-.36.31-.58.04-.218.02-.443-.06-.65a1.13 1.13 0 0 0-1.84-.36m7.88 0a1.12 1.12 0 0 0-.14 1.42 1.14 1.14 0 0 0 1.15.48 1.17 1.17 0 0 0 .58-.31c.153-.16.258-.362.3-.58.04-.222.006-.45-.1-.65a1.1 1.1 0 0 0-.41-.5 1.2 1.2 0 0 0-.59-.19c-.297 0-.581.119-.79.33"></path></svg>